<svg xmlns="http://www.w3.org/2000/svg" width="109" height="109" viewBox="0 0 109 109" fill="none">
<path d="M76.1809 61.2281C73.4803 66.139 65.816 63.5866 67.0186 58.1265L67.0842 57.8573C68.9158 50.233 73.3621 43.4647 79.6724 38.695C85.9828 33.9254 93.7707 31.4465 101.721 31.6768H102.115C107.779 31.9676 108.303 39.9154 102.782 41.197L102.487 41.2616C96.9501 42.5604 91.7533 44.9933 87.2346 48.4017C82.7193 51.8073 78.9922 56.121 76.3011 61.0558L76.2137 61.2066L76.1809 61.2281Z" fill="#5300F4"/>
<path d="M89.8465 69.6609C88.6187 67.9919 87.9207 66.0018 87.8407 63.9421C87.7608 61.8825 88.3026 59.8457 89.3975 58.0892C90.4924 56.3327 92.0914 54.9353 93.9923 54.0737C95.8933 53.2121 98.0109 52.9249 100.078 53.2483C102.144 53.5718 104.067 54.4915 105.603 55.8911C107.139 57.2907 108.22 59.1074 108.708 61.1117C109.196 63.116 109.07 65.2179 108.346 67.1517C107.622 69.0855 106.332 70.7644 104.639 71.9764C103.514 72.7821 102.239 73.3613 100.886 73.6811C99.5331 74.0008 98.1296 74.0546 96.7556 73.8396C95.3817 73.6245 94.0643 73.1448 92.8787 72.4278C91.6932 71.7108 90.6628 70.7706 89.8465 69.6609Z" fill="#5300F4"/>
<path d="M34.5145 63.0485C33.771 57.513 41.5009 55.1438 43.786 60.2485L43.8954 60.4962C46.9597 67.7255 47.3996 75.7745 45.1411 83.2861C42.8826 90.7977 38.0637 97.3126 31.4968 101.732L31.1579 101.948C26.4128 104.995 21.2413 98.8676 24.9368 94.6353L25.1336 94.4091C28.8397 90.1553 31.5929 85.1791 33.2134 79.8058C34.8519 74.4341 35.3067 68.7796 34.5473 63.2208L34.5145 63.0485Z" fill="#5300F4"/>
<path d="M18.4301 64.1254C20.4242 64.7615 22.1819 65.966 23.4808 67.5863C24.7797 69.2067 25.5614 71.1702 25.7271 73.2283C25.8928 75.2864 25.435 77.3467 24.4116 79.1485C23.3882 80.9502 21.8453 82.4125 19.9779 83.3503C18.1106 84.288 16.0028 84.6591 13.9213 84.4166C11.8398 84.1741 9.87806 83.3288 8.28437 81.9878C6.69068 80.6468 5.53664 78.8703 4.96826 76.8831C4.39987 74.8959 4.44269 72.7872 5.09131 70.824C5.96002 68.1946 7.85269 66.0122 10.3537 64.7563C12.8546 63.5003 15.7594 63.2734 18.4301 64.1254Z" fill="#5300F4"/>
<path d="M67.149 37.4493C71.0631 41.4986 66.2196 47.8849 61.3214 45.0741L61.0918 44.9341C54.2937 40.8652 49.1304 34.6089 46.4749 27.2229C43.8193 19.8369 43.8344 11.7743 46.5175 4.39796L46.6488 4.0318C48.6824 -1.18061 56.4888 0.800968 56.0515 6.34722C56.0515 6.44415 56.0515 6.54108 56.0515 6.638C55.5985 12.2278 56.3435 17.8489 58.2382 23.1368C60.1199 28.4248 63.1198 33.2592 67.0396 37.3201L67.1599 37.4493H67.149Z" fill="#5300F4"/>
<path d="M79.5261 27.2513C77.5356 27.8892 75.3977 27.9314 73.3829 27.3726C71.368 26.8137 69.5666 25.6789 68.2065 24.1116C66.8464 22.5443 65.9887 20.615 65.7418 18.5675C65.495 16.5201 65.87 14.4465 66.8196 12.609C67.7691 10.7715 69.2505 9.25266 71.0765 8.24447C72.9024 7.23629 74.9908 6.78408 77.0777 6.94502C79.1645 7.10596 81.1561 7.87282 82.8004 9.14864C84.4448 10.4245 85.6682 12.1519 86.3158 14.1126C87.1843 16.7417 86.9568 19.603 85.6835 22.067C84.4102 24.531 82.1953 26.3958 79.5261 27.2513Z" fill="#5300F4"/>
<path d="M56.0098 77.0475C50.4338 76.0352 50.5431 68.0658 56.1738 67.5058H56.4472C64.3744 66.8697 72.2818 68.9455 78.8364 73.383C85.3909 77.8205 90.1916 84.3484 92.4291 91.8662C92.4291 91.9954 92.5057 92.1139 92.5385 92.2431C94.0145 97.6279 86.4923 100.579 83.5512 95.8078L83.3981 95.5601C80.4372 90.7735 76.4843 86.6561 71.7977 83.4768C67.1179 80.2625 61.7947 78.0704 56.1848 77.0475H56.0098Z" fill="#5300F4"/>
<path d="M52.0833 92.4361C53.3137 90.7652 55.0196 89.4912 56.9852 88.7753C58.9508 88.0595 61.0878 87.9339 63.1259 88.4144C65.164 88.895 67.0116 89.9601 68.435 91.4751C69.8584 92.9901 70.7937 94.8869 71.1226 96.9255C71.4515 98.9642 71.1592 101.053 70.2826 102.928C69.4061 104.803 67.9847 106.38 66.1983 107.459C64.4118 108.538 62.3406 109.071 60.2465 108.991C58.1525 108.91 56.1297 108.22 54.434 107.007C53.3075 106.203 52.3529 105.188 51.625 104.02C50.8971 102.853 50.41 101.555 50.1917 100.202C49.9734 98.8484 50.0281 97.4659 50.3526 96.1334C50.6772 94.8009 51.2653 93.5445 52.0833 92.4361Z" fill="#5300F4"/>
<path d="M41.4015 38.5583C46.5183 36.146 51.2416 42.6507 46.9666 46.3662L46.7588 46.5492C40.7214 51.6502 33.082 54.5429 25.1303 54.7391C17.1786 54.9353 9.40172 52.423 3.11254 47.6262L2.80641 47.3785C-1.56697 43.8676 2.71894 37.1368 7.94512 39.2906L8.21846 39.4091C13.4726 41.5601 19.1274 42.5985 24.8154 42.4568C30.4997 42.3272 36.0907 41.0055 41.2156 38.5799L41.3687 38.5045L41.4015 38.5583Z" fill="#5300F4"/>
<path d="M35.3863 23.826C35.3863 25.8899 34.7649 27.9075 33.6008 29.6237C32.4367 31.3398 30.782 32.6773 28.8461 33.4672C26.9102 34.257 24.78 34.4637 22.7249 34.061C20.6698 33.6584 18.782 32.6645 17.3003 31.205C15.8187 29.7456 14.8096 27.8862 14.4008 25.8618C13.992 23.8375 14.2019 21.7393 15.0037 19.8324C15.8056 17.9256 17.1635 16.2958 18.9058 15.1491C20.6481 14.0024 22.6964 13.3904 24.7918 13.3904C26.1835 13.389 27.5618 13.6579 28.8478 14.1819C30.1339 14.7058 31.3024 15.4744 32.2864 16.4437C33.2705 17.4131 34.0508 18.564 34.5828 19.8308C35.1147 21.0975 35.3877 22.4551 35.3863 23.826Z" fill="#5300F4"/>
</svg>